<?xml version="1.0" encoding="UTF-8"?><svg id="Calque_2" xmlns="http://www.w3.org/2000/svg" viewBox="0 0 192 192"><defs><style>.cls-1{fill:#254d56;}.cls-2{fill:#fff;}</style></defs><g id="Calque_1-2"><circle class="cls-2" cx="96" cy="96" r="96"/><circle class="cls-1" cx="54.93" cy="117.36" r="12.06"/><path class="cls-1" d="M66.96,72.6c-1.89,2.71-.84,6.45,2.16,7.82,18.25,8.34,31.71,19.03,36.79,30.07,8.44,18.37,4.2,30.34.91,35.84-3.74,6.26-9.81,10.24-16.23,10.64-9.18.59-17.17-1.35-21.37-5.17-1.33-1.21-2.29-2.65-2.95-4.32.5-.17,1-.31,1.49-.5,3.97-1.57,7.48-3.82,10.44-6.68,2.96-2.87,5.29-6.29,6.93-10.16,1.64-3.88,2.47-8.14,2.47-12.68s-.83-8.8-2.47-12.68c-1.64-3.88-3.97-7.3-6.93-10.16-2.95-2.86-6.47-5.11-10.44-6.69-3.95-1.56-8.3-2.35-12.9-2.35s-9.03.79-12.98,2.36c-3.98,1.58-7.5,3.84-10.45,6.74-2.95,2.89-5.28,6.3-6.91,10.14-1.64,3.85-2.47,8.11-2.47,12.65s.83,8.8,2.47,12.65c1.64,3.84,3.96,7.25,6.91,10.14,2.96,2.9,6.49,5.17,10.5,6.74,3.17,1.25,6.6,1.98,10.19,2.23,1.27,5.1,3.84,9.53,7.64,12.99,8.36,7.61,20.52,8.92,27.92,8.92,1.48,0,2.76-.05,3.79-.12,11.05-.7,21.3-7.23,27.42-17.47,4.5-7.54,6.45-16.48,5.84-26-.89-13.99-7.62-26.91-17.61-36.75-7.77-7.66-20.14-16.91-34.54-20.3-2.14-.5-4.37.32-5.63,2.12h0ZM54.86,98.77c2.75,0,5.32.47,7.62,1.39,2.31.93,4.25,2.2,5.94,3.89,1.68,1.68,3.01,3.67,3.95,5.91.94,2.24,1.41,4.76,1.41,7.49s-.47,5.25-1.41,7.48c-.94,2.25-2.27,4.24-3.95,5.92-1.66,1.66-3.66,2.97-5.93,3.89-4.61,1.85-10.63,1.85-15.29,0-2.33-.93-4.28-2.2-5.97-3.88-1.68-1.68-3.03-3.69-3.99-5.97-.96-2.25-1.44-4.75-1.44-7.43s.48-5.24,1.44-7.46c.97-2.25,2.31-4.25,4-5.94,1.68-1.68,3.63-2.95,5.96-3.88,2.34-.93,4.92-1.4,7.68-1.4Z"/><path class="cls-1" d="M102.88,71.02c9.16,6.05,23.64.27,32.36-12.92,8.71-13.19,8.35-28.78-.81-34.83-9.16-6.05-23.64-.27-32.36,12.92-8.71,13.19-8.35,28.78.81,34.83Z"/><path class="cls-1" d="M167.95,74.55c-5.15-7.88-18.53-8.27-29.88-.85-11.35,7.41-16.38,19.82-11.24,27.7,5.15,7.88,18.53,8.27,29.88.85,11.35-7.41,16.38-19.82,11.24-27.7Z"/></g></svg>