<?xml version="1.0" encoding="UTF-8"?><svg id="Calque_2" xmlns="http://www.w3.org/2000/svg" viewBox="0 0 39.81 39.36"><defs><style>.cls-1{fill-rule:evenodd;}.cls-1,.cls-2{fill:#245b63;stroke:#245b63;stroke-miterlimit:10;stroke-width:.25px;}</style></defs><g id="Capa_1"><g id="Layer_1"><g id="_425817416"><path id="_424303960" class="cls-2" d="M20.62,6.77l3.44,1.8c.63.33.87,1.11.54,1.74l-4.91,9.38c-.04.08-.09.15-.15.22-.17-.22-.79-.52-.79-.52.05-.04.09-.07.12-.13l4.91-9.38c.09-.17.02-.4-.15-.49l-3.44-1.8c-.17-.09-.4-.02-.49.15l-4.91,9.38c-.04.07-.04.09-.04.17l-.49-.25-.39-.11s.09-.22.1-.25l4.91-9.38c.33-.63,1.11-.87,1.74-.54h0Z"/><path id="_424311448" class="cls-2" d="M25.72,5.97l-1.42,2.72-.82-.43,1.42-2.72.82.43ZM20.38,6.67l1.44-2.74.29.15.53.28-1.42,2.72-.83-.41h0Z"/><path id="_424311640" class="cls-2" d="M19.06,20.84c-.06-.19-.18-.35-.36-.45-1.46-.63-3.25-1.7-4.71-2.46-.19-.1-.41-.11-.61-.05-.18.06-.35.18-.45.36,0,.02-.02.04-.03.06-.09.18-.09.39-.04.57.08.27.21.35.42.49l4.6,2.41c.23.1.37.16.64.07.42-.13.65-.57.52-.99h0ZM19.8,21.93c-.22.39-.58.66-.98.79-.4.13-.86.1-1.26-.09-.03-.01-.06-.03-.08-.04-1.07-.56-4.68-2.45-4.68-2.45-.4-.22-.67-.58-.8-.99-.13-.42-.1-.88.11-1.3h0s0,0,0,0h0s0,0,0,0h0s.01-.02.02-.03h0s0,0,0,0c.22-.4.58-.67.99-.8.42-.13.89-.1,1.31.12,1.33.7,3.56,1.7,4.72,2.47.4.22.67.58.8.99.12.38.11.81-.06,1.2,0,.01-.08.15-.08.16h0Z"/><path id="_424311736" class="cls-2" d="M24.21,9.83c-.25-.06-.5.09-.56.34-.06.25.09.5.34.56.46.11.92.25,1.37.42.45.17.89.37,1.32.59.41.22.81.46,1.2.72,2.45,1.68,4.07,4.15,4.73,6.85.66,2.7.37,5.63-.99,8.23-.21.4-.45.8-.71,1.19-.14.21-.09.5.12.64s.5.09.64-.12c.28-.41.54-.84.77-1.28,1.47-2.8,1.78-5.96,1.07-8.87-.72-2.91-2.46-5.58-5.11-7.39-.41-.28-.84-.54-1.29-.78-.47-.25-.94-.46-1.42-.64-.49-.18-.98-.34-1.48-.46h0Z"/><path id="_424311568" class="cls-2" d="M21.86,14.48c-.24-.08-.5.05-.58.29-.08.24.05.5.29.58.2.07.39.14.59.23.2.08.39.18.58.27,1.69.88,2.91,2.28,3.6,3.88.71,1.66.85,3.54.35,5.31-.07.25.07.5.32.57.25.07.5-.07.57-.32.56-1.98.41-4.08-.39-5.93-.77-1.78-2.13-3.34-4.02-4.33-.22-.11-.43-.21-.64-.3-.22-.09-.44-.18-.66-.25h0Z"/><path id="_424311472" class="cls-2" d="M27.45,24.69h1.19c1.72,0,3.13,1.41,3.13,3.13v7.89c0,.26-.21.46-.46.46h-6.53c-.26,0-.46-.21-.46-.46v-7.89c0-1.72,1.41-3.13,3.13-3.13h0ZM28.65,25.62h-1.19c-1.21,0-2.2.99-2.2,2.2v7.43h5.6v-7.43c0-1.21-.99-2.2-2.2-2.2h0Z"/><path id="_425821664" class="cls-2" d="M33.27,36.18H6.54c-1.1,0-2.01.9-2.01,2.01v.12h30.75v-.12c0-1.1-.9-2.01-2.01-2.01h0ZM6.54,35.25h26.73c1.62,0,2.94,1.32,2.94,2.94v.58c0,.26-.21.46-.46.46H4.07c-.26,0-.46-.21-.46-.46v-.58c0-1.62,1.32-2.94,2.94-2.94h0Z"/><path id="_425820536" class="cls-2" d="M28.05,26.6c.83,0,1.51.68,1.51,1.51s-.67,1.51-1.51,1.51-1.51-.67-1.51-1.51.68-1.51,1.51-1.51ZM28.05,27.53c-.32,0-.58.26-.58.58s.26.58.58.58.58-.26.58-.58-.26-.58-.58-.58Z"/><path id="_425817056" class="cls-2" d="M24.32,28.29h-12.7c-.15,0-.29.06-.39.16l-.02.02c-.09.1-.14.23-.14.37,0,.15.06.29.16.39h0s0,0,0,0c.1.1.24.16.39.16h12.7v-1.1ZM11.62,27.36h13.16c.26,0,.46.21.46.46v2.02c0,.26-.21.46-.46.46h-13.16c-.41,0-.78-.17-1.04-.43h0s.33-.33.33-.33l-.33.33c-.27-.27-.43-.64-.43-1.04s.15-.75.4-1.01c0-.01.02-.02.03-.03.27-.27.64-.43,1.04-.43h0Z"/><path id="_425817344" class="cls-2" d="M39.22,39.23c.26,0,.46-.21.46-.46s-.21-.46-.46-.46H.59c-.26,0-.46.21-.46.46s.21.46.46.46h38.63Z"/><path id="_425817392" class="cls-1" d="M28.01,3L22.91.34c-.89-.46-1.98-.14-2.47.74-.53.88-.13,2.07.76,2.53l5.14,2.69c2.3,1.2,3.8-2.42,1.67-3.29h0ZM22.49,1.15c1.59.83,3.57,2.01,5.16,2.7,1.02.58.17,2.17-.89,1.62l-5.14-2.69c-.51-.27-.58-.79-.37-1.27.24-.43.79-.59,1.23-.36h0Z"/></g></g></g></svg>