<?xml version="1.0" encoding="UTF-8"?><svg id="Calque_2" xmlns="http://www.w3.org/2000/svg" viewBox="0 0 40.88 40.88"><defs><style>.cls-1{fill:#245b63;fill-rule:evenodd;}</style></defs><g id="Capa_1"><path class="cls-1" d="M38.77,19.07c.23.23.23.59,0,.82l-4.19,4.19c-.11.11-.26.17-.41.17s-.3-.06-.41-.17c-.23-.23-.23-.59,0-.82l4.19-4.19c.23-.23.59-.23.82,0h0ZM39.34,20.33c.51-.51.51-1.33,0-1.84-.24-.24-.57-.38-.92-.38s-.67.13-.92.38l-10.08,10.08,1.84,1.84,10.08-10.08ZM27.69,31.99l-1.84-1.84.76-.75,1.83,1.84-.75.75ZM24.44,34.14l1.88-1.88-.74-.74-7.99,7.99c1.02.38,2.9.27,3.84-.67l2.76-2.76c.01-.17.02-.46.03-.68.02-.38.03-.74.05-.93.02-.12.07-.24.16-.33h0ZM40.17,17.68c-.96-.96-2.52-.96-3.48,0l-12.06,12.06c-.23.23-.23.59,0,.82l.14.14-8.51,8.51c-.11.11-.17.26-.17.41s.06.3.17.41c.55.55,1.56.85,2.64.85,1.22,0,2.53-.38,3.36-1.22l2.89-2.89c.19-.2.2-.35.24-1.32,0-.21.02-.46.03-.64l1.73-1.73.14.14c.11.11.26.17.41.17s.3-.06.41-.17l12.06-12.06c.46-.46.72-1.08.72-1.74s-.25-1.28-.72-1.74h0ZM28.06,12.84c.38-.38.87-.56,1.37-.56s.99.19,1.36.56c.37.36.56.85.56,1.36s-.2,1-.56,1.36c-.75.75-1.98.75-2.73,0-.36-.36-.56-.85-.56-1.36,0-.52.2-1,.56-1.36ZM29.43,17.29c-.79,0-1.58-.3-2.18-.9-.58-.58-.9-1.36-.9-2.18s.32-1.6.9-2.18c1.2-1.2,3.16-1.2,4.37,0,.58.58.9,1.36.9,2.18s-.32,1.6-.9,2.18c-.6.6-1.39.9-2.18.9h0ZM15.09,22.34c.28.29.28.76,0,1.05-.29.29-.76.29-1.05,0-.29-.29-.29-.76,0-1.05.29-.29.76-.29,1.05,0ZM10.99,28.69c-3.2,3.08-4.58,3.13-5.35,2.74l7.22-9.32c.06-.08.11-.18.12-.29l1.32-10.9c.02-.19-.05-.38-.19-.5-.14-.13-.33-.18-.52-.13-1.58.38-3.21-.08-4.36-1.23-1.81-1.81-1.81-4.75,0-6.56s4.75-1.81,6.55,0c1,1,1.49,2.39,1.29,3.65l-1.3,8.23c-.02.12,0,.24.05.35l1.05,2.1-.56,6.73-5.32,5.12ZM1.15,25.67l8.48-1.29,2.2-2.85.13-1.04-5.81,1.83c-4.23,1.34-4.95,2.5-5,3.35ZM20.29,16.95l-2.29.43-.42,4.96,6.67-6.46c.14-.13.33-.19.52-.15.18.04.34.16.42.34.65,1.49,2.01,2.51,3.61,2.73,1.23.17,2.45-.15,3.43-.9.99-.75,1.62-1.83,1.79-3.06.17-1.23-.15-2.45-.9-3.43-.75-.99-1.83-1.62-3.06-1.79-1.39-.19-2.81.26-3.69,1.17l-5.77,6c-.09.09-.19.15-.31.17h0ZM17.28,24.25l7.22-7c.9,1.47,2.4,2.45,4.14,2.69.26.04.53.05.79.05,2.85,0,5.34-2.11,5.74-5,.21-1.53-.19-3.06-1.12-4.29-.94-1.23-2.3-2.03-3.83-2.24-1.76-.24-3.55.34-4.68,1.52l-5.65,5.87-2.03.38-.92-1.84,1.27-8.04c.25-1.61-.37-3.39-1.62-4.65-2.26-2.26-5.93-2.26-8.19,0-2.26,2.26-2.26,5.94,0,8.19,1.24,1.24,2.93,1.84,4.65,1.67l-.93,7.67-6.3,1.99C.62,22.86-.24,24.49.05,26.43c.02.15.11.29.23.38.1.07.22.11.34.11.03,0,.06,0,.09,0l7.89-1.2-4.26,5.51c-.19.25-.15.62.11.81.46.36,1.07.73,1.92.73.25,0,.52-.03.82-.11,1.23-.31,2.74-1.33,4.61-3.13l5.48-5.27s0,0,0,0h0ZM13.86,7.16c.75-.75.75-1.98,0-2.73-.75-.75-1.98-.75-2.73,0-.75.75-.75,1.98,0,2.73s1.98.75,2.73,0h0ZM10.31,3.61c-1.21,1.2-1.21,3.16,0,4.37.6.6,1.39.9,2.18.9s1.58-.3,2.18-.9c1.21-1.2,1.21-3.16,0-4.37-1.2-1.2-3.16-1.2-4.37,0h0Z"/></g></svg>