<?xml version="1.0" encoding="UTF-8"?><svg id="Calque_2" xmlns="http://www.w3.org/2000/svg" viewBox="0 0 13.88 39.94"><defs><style>.cls-1{fill:#245b63;}</style></defs><g id="Capa_1"><path class="cls-1" d="M0,0v7.12h3.07v9.83h3.12v10.57h1.5v-10.57h3.29V7.12h2.9V0H0ZM9.48,15.45h-4.91V7.12h4.91v8.33ZM12.38,5.62H1.5V1.5h10.88v4.12Z"/><path class="cls-1" d="M7.03,29.09l-.18.19c-2.67,2.85-4.03,5.02-4.03,6.45,0,2.32,1.89,4.21,4.21,4.21s4.21-1.89,4.21-4.21c0-1.98-2.81-5.17-4.02-6.45l-.18-.19ZM7.02,38.7c-1.63,0-2.96-1.33-2.96-2.97,0-1.08,1.56-3.23,2.89-4.74l.07-.08.07.08c1.33,1.51,2.89,3.65,2.89,4.74,0,1.64-1.33,2.97-2.97,2.97Z"/></g></svg>