<?xml version="1.0" encoding="UTF-8"?><svg id="Calque_2" xmlns="http://www.w3.org/2000/svg" viewBox="0 0 24.76 44.17"><defs><style>.cls-1{fill:#245b63;}</style></defs><g id="Capa_1"><path class="cls-1" d="M15.7,11.75h3.82c.49,0,.89-.4.89-.89s-.4-.89-.89-.89h-3.82c-.49,0-.89.4-.89.89s.4.89.89.89Z"/><path class="cls-1" d="M5.01,19.22c.49,0,.89-.4.89-.89v-7.47c0-.49-.4-.89-.89-.89s-.89.4-.89.89v7.47c0,.49.4.89.89.89Z"/><path class="cls-1" d="M15.7,15.48h3.82c.49,0,.89-.4.89-.89s-.4-.89-.89-.89h-3.82c-.49,0-.89.4-.89.89s.4.89.89.89Z"/><path class="cls-1" d="M15.7,19.22h3.82c.49,0,.89-.4.89-.89s-.4-.89-.89-.89h-3.82c-.49,0-.89.4-.89.89s.4.89.89.89Z"/><path class="cls-1" d="M15.7,22.96h3.82c.49,0,.89-.4.89-.89s-.4-.89-.89-.89h-3.82c-.49,0-.89.4-.89.89s.4.89.89.89Z"/><path class="cls-1" d="M2.9,39.41h6.22v.33c0,1.48,1,2.73,2.36,3.12v1.32c.6-.06,1.19-.1,1.79-.1v-1.22c1.36-.39,2.36-1.63,2.36-3.12v-.33h6.22c1.6,0,2.9-1.3,2.9-2.9V9.12c0-1.6-1.3-2.9-2.9-2.9h-8.84v-.56c1.17-.38,2.02-1.47,2.02-2.76,0-1.61-1.31-2.91-2.91-2.91-.83,0-1.63.36-2.18.98-.33.37-.29.93.08,1.26.37.33.93.29,1.26-.08.21-.24.52-.38.84-.38.62,0,1.12.5,1.12,1.12s-.5,1.12-1.12,1.12c-.49,0-.89.4-.89.89v1.29H2.9c-1.6,0-2.9,1.3-2.9,2.9v27.39c0,1.6,1.3,2.9,2.9,2.9ZM13.85,39.73c0,.81-.66,1.47-1.47,1.47s-1.47-.66-1.47-1.47v-.33h2.94v.33ZM1.79,9.12c0-.61.5-1.11,1.11-1.11h0s18.96,0,18.96,0c.61,0,1.11.5,1.11,1.11v15.96c-1.16.84-5.37,3.39-10.04-.27-3-2.35-5.79-3.28-8.29-2.75-1.2.25-2.14.8-2.85,1.38v-14.33ZM1.79,26.08c.3-.47,1.34-1.87,3.22-2.26,1.97-.41,4.26.4,6.82,2.41,2.19,1.71,4.31,2.29,6.18,2.29,2.07,0,3.82-.7,4.97-1.34v9.34c0,.61-.5,1.11-1.11,1.11H2.9c-.61,0-1.11-.5-1.11-1.11v-10.43Z"/></g></svg>