<?xml version="1.0" encoding="UTF-8"?><svg id="Calque_2" xmlns="http://www.w3.org/2000/svg" viewBox="0 0 21.09 36.48"><defs><style>.cls-1{fill:#245b63;}</style></defs><g id="Capa_1"><g id="g1291"><g id="g1297"><g id="path1299"><path class="cls-1" d="M7.28,36.48c-.1,0-.2-.02-.29-.06-.34-.15-.52-.52-.43-.87l3.35-13.29H.75c-.27,0-.52-.15-.66-.39s-.12-.53.02-.76L13.18.35c.2-.31.59-.43.93-.29.34.15.52.52.43.87l-3.35,13.29h9.15c.27,0,.52.15.66.39s.12.53-.02.76l-13.06,20.76c-.14.22-.38.35-.63.35ZM2.11,20.76h8.76c.23,0,.45.11.59.29.14.18.19.42.14.64l-2.43,9.64,9.82-15.61h-8.76c-.23,0-.45-.11-.59-.29-.14-.18-.19-.42-.14-.64l2.43-9.64L2.11,20.76Z"/></g></g></g></g></svg>