<svg width="31" height="34" viewBox="0 0 31 34" fill="none" xmlns="http://www.w3.org/2000/svg">
<mask id="mask0_4_628" style="mask-type:luminance" maskUnits="userSpaceOnUse" x="0" y="0" width="31" height="34">
<path d="M29.834 0.5V33.3604H0.5V0.5H29.834Z" fill="white" stroke="white"/>
</mask>
<g mask="url(#mask0_4_628)">
<path d="M4.03576 17.67H5.34711C6.79061 17.67 7.96981 18.87 7.96981 20.35C7.96981 21.83 6.80078 23.04 5.34711 23.04H4.69652C2.52111 23.04 0.772644 24.84 0.772644 27.07C0.772644 29.3 2.53127 31.1 4.69652 31.1H8.90503M17.7897 12.16H20.4124M19.0908 16.49V12.16M23.0249 32.44V23.04M23.0249 32.44C23.0249 30.58 24.4887 29.08 26.2982 29.08H26.288C28.0975 29.08 29.5613 30.59 29.5613 32.44C29.5613 32.81 29.2767 33.11 28.9107 33.11H23.6755C23.3197 33.11 23.0249 32.81 23.0249 32.44ZM15.167 32.44V23.04M14.5164 33.11H23.6856M26.9488 29.15V24.65C26.9488 20.9 25.8102 17.25 23.6856 14.2M14.496 14.2C12.3816 17.25 11.2431 20.9 11.2431 24.65V29.15M13.2762 12.98L9.99274 13.88M12.036 10.15H9.28115M28.1991 13.88L24.9157 12.98M26.1559 10.15H28.9107M11.8937 29.08C10.0842 29.08 8.6204 30.58 8.6204 32.44C8.6204 32.81 8.9152 33.11 9.27099 33.11H14.5062C14.8722 33.11 15.1568 32.81 15.1568 32.44C15.1568 30.59 13.693 29.08 11.8835 29.08H11.8937ZM22.3946 3.99L22.3743 4.11C20.4632 2.54 17.7388 2.54 15.8277 4.11L15.8074 3.99C15.4414 2.11 13.8251 0.75 11.9547 0.75H11.9038V8.85C11.9038 11.31 13.2152 13.57 15.3195 14.74L17.8507 16.16C18.6334 16.6 19.5788 16.6 20.3615 16.16L22.8927 14.74C24.997 13.56 26.3083 11.3 26.3083 8.85V0.75H26.2575C24.3871 0.75 22.7708 2.1 22.4048 3.99H22.3946Z" stroke="#702F3A" stroke-width="1.5" stroke-linecap="round" stroke-linejoin="round"/>
</g>
</svg>
