<?xml version="1.0" encoding="UTF-8"?><svg id="Calque_2" xmlns="http://www.w3.org/2000/svg" viewBox="0 0 31.04 31.02"><defs><style>.cls-1{fill:#245b63;}</style></defs><g id="Capa_1"><path class="cls-1" d="M30.08,18.17v-2.55c0-3.7-3.01-6.72-6.72-6.72h-3.81l-.49-1.3c-.25-.65-.88-1.09-1.58-1.09h-.88v-1.8l4.64.42c.6.07,1.21-.15,1.66-.56.45-.41.71-.99.71-1.6v-.69c0-.61-.26-1.19-.71-1.6-.45-.41-1.04-.61-1.66-.56l-4.7.42c-.93-.73-2.34-.73-3.27,0l-4.7-.42c-.6-.06-1.21.15-1.66.56-.45.41-.71.99-.71,1.6v.69c0,.61.26,1.19.71,1.6.45.41,1.05.61,1.66.56l4.64-.42v1.8h-.84c-.69,0-1.31.42-1.57,1.06l-.53,1.33h-4.83v-1.07c0-.93-.76-1.69-1.69-1.69H1.46v-1.91c0-.4-.33-.73-.73-.73s-.73.33-.73.73v16.36c0,.4.33.73.73.73s.73-.33.73-.73v-1.91h2.33c.93,0,1.69-.76,1.69-1.69v-1.07h3.95c.67,1.98,2.56,3.35,4.67,3.35h1.68c2.11,0,4-1.37,4.67-3.35h1.92c.39,0,.71.32.71.71v1.53c-.58.28-.96.87-.96,1.52v.96c0,.93.76,1.69,1.69,1.69h5.57c.93,0,1.69-.76,1.69-1.69v-.96c0-.65-.38-1.24-.96-1.52ZM13.73,2.63c0-.65.53-1.19,1.19-1.19s1.19.53,1.19,1.19-.53,1.19-1.19,1.19-1.19-.53-1.19-1.19ZM15.15,5.26v1.25h-.46v-1.25c.15.01.31.01.46,0ZM29.58,19.69v.96c0,.13-.1.23-.23.23h-5.57c-.13,0-.23-.1-.23-.23v-.96c0-.13.1-.23.23-.23h5.57c.13,0,.23.1.23.23ZM12.18,8.11c.04-.09.12-.14.21-.14h5.09c.09,0,.18.06.21.15l.3.79h-3.44c-.4,0-.73.33-.73.73s.33.73.73.73h8.8c2.9,0,5.26,2.36,5.26,5.26v2.38h-4.11v-1.37c0-1.19-.97-2.17-2.17-2.17h-2.48c-.35,0-.65.25-.71.58-.33,1.6-1.75,2.77-3.39,2.77h-1.68c-1.64,0-3.07-1.17-3.39-2.77-.07-.34-.37-.58-.71-.58h-4.5v-4.11h5.32c.3,0,.57-.18.68-.46l.72-1.79ZM17.47,1.93l3.91-.35c.2-.01.39.05.54.18.15.14.23.32.23.52v.69c0,.2-.08.39-.23.52s-.35.2-.54.18l-3.91-.35c.06-.23.09-.46.09-.7s-.03-.47-.09-.7ZM12.37,3.32l-3.91.35c-.2.02-.39-.05-.54-.18-.15-.14-.23-.32-.23-.52v-.69c0-.2.08-.39.23-.52.13-.12.3-.19.47-.19.02,0,.04,0,.07,0l3.91.35c-.06.23-.09.46-.09.7s.03.47.09.7ZM4.01,7.84v9.16c0,.13-.1.23-.23.23H1.46V7.61h2.33c.13,0,.23.1.23.23Z"/><path class="cls-1" d="M27.77,23.54c-.24-.43-.67-.69-1.17-.69h-.01c-.48,0-.92.25-1.16.67l-1.59,2.75c-.57.99-.57,2.17,0,3.16.57.99,1.59,1.58,2.73,1.58s2.15-.58,2.72-1.56.59-2.15.04-3.14l-1.55-2.78ZM28.05,27.04c.3.53.29,1.16-.02,1.69-.31.53-.86.84-1.46.84s-1.16-.32-1.47-.85c-.31-.53-.31-1.17,0-1.7l1.5-2.58,1.46,2.61Z"/></g></svg>