<?xml version="1.0" encoding="UTF-8"?><svg id="Calque_2" xmlns="http://www.w3.org/2000/svg" viewBox="0 0 27.45 27.45"><defs><style>.cls-1{fill:#245b63;}</style></defs><g id="Capa_1"><path class="cls-1" d="M12.58,20.68l13.67-13.67c1.6-1.6,1.6-4.21,0-5.81s-4.21-1.6-5.81,0c0,0-11.72,11.72-13.67,13.67-1.84-.14-3.61.51-4.92,1.83-2.46,2.46-2.46,6.45,0,8.91s6.45,2.46,8.91,0c1.32-1.32,1.97-3.09,1.83-4.93ZM3,24.45c-1.82-1.82-1.82-4.77,0-6.59,1.04-1.04,2.47-1.52,3.92-1.32.42.08.89-.39,14.67-14.17.96-.96,2.53-.96,3.49,0s.96,2.53,0,3.49l-.97.97-.97-.97c-.32-.32-.84-.32-1.16,0s-.32.84,0,1.16l.97.97-1.16,1.16-.97-.97c-.32-.32-.84-.32-1.16,0s-.32.84,0,1.16l.97.97-1.16,1.16-.97-.97c-.32-.32-.84-.32-1.16,0s-.32.84,0,1.16l.97.97-7.17,7.17c-.18.18-.27.44-.23.7.21,1.47-.27,2.91-1.32,3.95-1.82,1.82-4.77,1.82-6.59,0Z"/><path class="cls-1" d="M8.92,19.69l6.48-6.48c.32-.32.32-.84,0-1.16s-.84-.32-1.16,0l-6.48,6.48c-1.15-.64-2.62-.48-3.59.49-1.18,1.18-1.17,3.09,0,4.26s3.09,1.18,4.26,0c.97-.97,1.13-2.44.49-3.59ZM5.33,22.12c-.53-.53-.53-1.4,0-1.94s1.4-.53,1.94,0,.53,1.4,0,1.94-1.4.53-1.94,0Z"/></g></svg>