<?xml version="1.0" encoding="UTF-8"?><svg id="Calque_2" xmlns="http://www.w3.org/2000/svg" viewBox="0 0 32.87 32.87"><defs><style>.cls-1{fill:#245b63;}</style></defs><g id="Capa_1"><path class="cls-1" d="M31.73,8.27l1.13-1.13L25.73,0l-1.13,1.13,3,3-2.19,2.19-3.94-3.89-3.88,3.88,1.03,1.03-10.29,10.29c-1.01,1.01-1.25,2.5-.72,3.74l-2.92,2.92,1.37,1.37L0,31.73l1.13,1.13,6.08-6.08,1.37,1.37,2.92-2.92c.42.18.87.27,1.33.27.91,0,1.76-.35,2.41-1l10.29-10.29,1.03,1.03,3.93-3.93-3.94-3.89,2.18-2.18,3,3ZM6.98,24.28l1.61-1.61,1.61,1.61-1.61,1.61-1.61-1.61ZM14.11,23.39c-.7.7-1.84.7-2.54,0l-2.09-2.09c-.7-.7-.7-1.84,0-2.54l1.63-1.63,1.81,1.81,1.13-1.13-1.81-1.81,1.16-1.16h9.26l-8.55,8.55ZM24.27,13.23h-9.26l4.76-4.76,4.63,4.63-.13.13ZM26.56,13l-6.69-6.69,1.61-1.61,6.73,6.65-1.65,1.65Z"/></g></svg>