<?xml version="1.0" encoding="UTF-8"?><svg id="Calque_2" xmlns="http://www.w3.org/2000/svg" viewBox="0 0 25.98 25.98"><defs><style>.cls-1{fill:#245b63;}</style></defs><g id="Capa_1"><path class="cls-1" d="M23.26,19.32c-.45-.33-1.09-.24-1.42.21-.18.25-.38.49-.59.72-.37.42-.33,1.06.09,1.43.19.17.43.25.67.25.28,0,.56-.12.76-.34.24-.27.48-.56.69-.85.33-.45.24-1.09-.21-1.42Z"/><path class="cls-1" d="M24.96,14.56c-.55-.12-1.09.23-1.21.78-.07.3-.14.6-.24.9-.17.54.13,1.1.67,1.27.1.03.2.05.3.05.43,0,.83-.28.97-.72.11-.35.2-.71.28-1.06.12-.55-.23-1.09-.78-1.21Z"/><path class="cls-1" d="M18.37,22.57c-.27.15-.55.29-.83.42-.51.23-.74.83-.51,1.34.17.38.54.6.93.6.14,0,.28-.03.42-.09.33-.15.66-.32.98-.5.49-.27.66-.89.39-1.38-.27-.49-.89-.66-1.38-.39Z"/><path class="cls-1" d="M11.97,4.87v7.7l-3.72,3.72c-.4.4-.4,1.04,0,1.44.2.2.46.3.72.3s.52-.1.72-.3l4.02-4.02c.19-.19.3-.45.3-.72V4.87c0-.56-.45-1.01-1.01-1.01s-1.01.45-1.01,1.01Z"/><path class="cls-1" d="M24.96,2.18c-.56,0-1.01.45-1.01,1.01v2.82C21.59,2.31,17.46,0,12.99,0c-3.47,0-6.73,1.35-9.18,3.8C1.35,6.26,0,9.52,0,12.99s1.35,6.73,3.8,9.18c2.45,2.45,5.72,3.8,9.18,3.8,0,0,.02,0,.03,0,0,0,.02,0,.03,0,.37,0,.74-.02,1.1-.05.56-.05.97-.54.93-1.1-.05-.56-.54-.97-1.1-.93-.31.03-.62.04-.93.04,0,0-.02,0-.03,0,0,0-.02,0-.03,0-6.04,0-10.96-4.92-10.96-10.96S6.95,2.03,12.99,2.03c3.89,0,7.48,2.08,9.43,5.38h-2.79c-.56,0-1.01.45-1.01,1.01s.45,1.01,1.01,1.01h3.1c.62,0,1.2-.17,1.69-.47.03-.02.06-.04.09-.06.88-.58,1.47-1.58,1.47-2.71v-2.99c0-.56-.45-1.01-1.01-1.01Z"/></g></svg>