<?xml version="1.0" encoding="UTF-8"?><svg id="Calque_2" xmlns="http://www.w3.org/2000/svg" viewBox="0 0 35.9 31.46"><defs><style>.cls-1{fill:#245b63;stroke:#245b63;stroke-miterlimit:10;stroke-width:.25px;}</style></defs><g id="Capa_1"><path class="cls-1" d="M17.95,31.34c-.14,0-.27-.05-.38-.14-1.61-1.41-3.12-2.7-4.58-3.94C5.06,20.52-.17,16.07.14,9.57.39,4.31,4.41.16,9.29.13h0c3.45,0,6.34,1.96,8.22,5.53l.44.84.44-.84C20.27,2.09,23.16.12,26.54.12c4.96.04,8.98,4.19,9.22,9.45.31,6.5-4.93,10.94-12.85,17.68-1.47,1.25-2.98,2.53-4.59,3.94-.1.09-.24.14-.38.14h0ZM3.97,17.11c.14.18.29.37.44.55,2.18,2.65,5.33,5.33,9.31,8.71,1.29,1.09,2.56,2.18,3.9,3.34l.33.29.33-.29c1.36-1.18,2.64-2.27,3.89-3.33,3.81-3.24,7.1-6.04,9.32-8.73.15-.19.3-.37.44-.55l.62-.81h-9.95l-1.99,3.99c-.1.2-.29.31-.51.31s-.42-.12-.51-.32l-3.78-7.56-1.63,3.27c-.1.2-.29.32-.51.32H3.36l.62.8ZM15.8,10.86c.22,0,.41.12.51.32l3.78,7.56,1.63-3.27c.1-.2.29-.32.51-.32h10.99l.14-.26c.92-1.72,1.32-3.44,1.24-5.27-.22-4.65-3.74-8.32-8.01-8.35-3.82,0-6.02,2.68-7.19,4.92-.29.55-.85.89-1.46.89s-1.17-.34-1.46-.89c-1.18-2.24-3.38-4.92-7.13-4.92-4.34.03-7.86,3.7-8.08,8.35-.09,1.82.32,3.55,1.24,5.27l.14.26h10.64l1.99-3.98c.1-.2.29-.32.51-.32Z"/></g></svg>