<?xml version="1.0" encoding="UTF-8"?><svg id="Calque_2" xmlns="http://www.w3.org/2000/svg" viewBox="0 0 27.19 33.99"><defs><style>.cls-1{fill:#245b63;fill-rule:evenodd;}</style></defs><g id="Capa_1"><path class="cls-1" d="M25.49,20.4c0-2.62-2.02-6.48-5.44-10.98-2.14-2.81-4.55-5.53-6.47-7.49-1.9,1.95-4.32,4.67-6.45,7.49C3.71,13.92,1.7,17.78,1.7,20.4c0,2.96,1.08,5.75,3.01,7.91.31.35.28.89-.07,1.2-.35.31-.89.28-1.2-.07-2.2-2.47-3.44-5.66-3.44-9.04,0-3.11,2.14-7.22,5.77-12.01C8.1,5.32,10.75,2.36,12.75.35c.46-.46,1.2-.46,1.67,0,2.02,2.03,4.66,4.97,6.99,8.03,3.64,4.79,5.79,8.9,5.79,12.01,0,7.51-6.09,13.6-13.6,13.6-2.58,0-5.06-.72-7.19-2.06-.4-.25-.52-.77-.27-1.17.25-.4.77-.52,1.17-.27,1.87,1.17,4.03,1.8,6.29,1.8,6.57,0,11.9-5.33,11.9-11.9ZM5.1,20.71c0,4.69,3.81,8.5,8.5,8.5.47,0,.85.38.85.85s-.38.85-.85.85c-5.63,0-10.2-4.57-10.2-10.2,0-.47.38-.85.85-.85.47,0,.85.38.85.85Z"/></g></svg>