<?xml version="1.0" encoding="UTF-8"?><svg id="Calque_2" xmlns="http://www.w3.org/2000/svg" viewBox="0 0 29.28 27.51"><defs><style>.cls-1{fill:#245b63;}</style></defs><g id="Capa_1"><path class="cls-1" d="M23.15,27.51H6.13c-2.19,0-4.16-1.13-5.27-3.02-1.11-1.89-1.14-4.16-.07-6.08L9.3,3.14c1.1-1.97,3.09-3.14,5.34-3.14h0c2.25,0,4.25,1.17,5.34,3.14l8.51,15.28c1.07,1.91,1.04,4.18-.07,6.08-1.11,1.89-3.08,3.02-5.27,3.02h0ZM14.64,2.33h0c-1.39,0-2.63.73-3.31,1.94L2.82,19.55c-.66,1.19-.64,2.59.04,3.76.69,1.17,1.91,1.87,3.27,1.87h17.03c1.36,0,2.58-.7,3.27-1.87.69-1.17.7-2.58.04-3.76l-8.51-15.28c-.68-1.22-1.92-1.94-3.31-1.94h0Z"/><path class="cls-1" d="M14.64,17.81c.64,0,1.16-.52,1.16-1.16V7.85c0-.64-.52-1.16-1.16-1.16s-1.16.52-1.16,1.16v8.79c0,.64.52,1.16,1.16,1.16Z"/><circle class="cls-1" cx="14.64" cy="20.51" r="1.25"/></g></svg>