<?xml version="1.0" encoding="UTF-8"?><svg id="Calque_2" xmlns="http://www.w3.org/2000/svg" viewBox="0 0 29.32 28.91"><defs><style>.cls-1{fill:#245b63;}</style></defs><g id="Capa_1"><g id="layer1"><path class="cls-1" d="M.21,23.85c-.28-.3-.28-.72,0-1.03l1.36-1.5c1.1-1.21,2.2-2.42,3.29-3.63l1.13,1.03c-.93,1.02-3.46,3.82-3.46,3.82h13.4c3.3,0,5.59-.65,7.42-2.1,1.69-1.72,3.16-3.6,4.52-5.76l1.25.84c-.15.23-.3.46-.45.69-1.27,1.94-2.58,3.95-4.38,5.43-2.06,1.64-4.79,2.43-8.36,2.43H2.47l3.5,3.82-1.12,1.03L.21,23.85ZM.19,13.4c.15-.23.3-.46.45-.69,1.27-1.94,2.58-3.95,4.38-5.43,2.06-1.64,4.79-2.43,8.36-2.43h13.46l-3.5-3.82,1.12-1.03,4.64,5.06c.32.35.23.78,0,1.03l-1.29,1.43c-1.12,1.24-2.24,2.47-3.36,3.71l-1.13-1.02c.9-.99,3.46-3.82,3.46-3.82h-13.4c-3.3,0-5.59.65-7.42,2.1-1.69,1.72-3.16,3.6-4.52,5.76l-1.25-.84Z"/></g></g></svg>