<?xml version="1.0" encoding="UTF-8"?><svg id="Calque_2" xmlns="http://www.w3.org/2000/svg" viewBox="0 0 36.29 34.17"><defs><style>.cls-1{fill:#245b63;}</style></defs><g id="Capa_1"><path class="cls-1" d="M12.92,22.8v-2.62c0-.32-.26-.57-.57-.57h-2.51v-2.51c0-.32-.26-.57-.57-.57h-2.62c-.32,0-.57.26-.57.57h0v2.51h-2.51c-.32,0-.57.26-.57.57v2.62c0,.32.26.57.57.57h2.51v2.51c0,.32.26.57.57.57h2.62c.32,0,.57-.26.57-.57v-2.51h2.51c.32,0,.57-.26.57-.57h0ZM11.77,22.22h-2.51c-.32,0-.57.26-.57.57v2.51h-1.47v-2.51c0-.32-.26-.57-.57-.57h-2.51v-1.47h2.51c.32,0,.57-.26.57-.57v-2.51h1.47v2.51c0,.32.26.57.57.57h2.51v1.47Z"/><path class="cls-1" d="M30.57,23.26l4.07-4.07c2.17-2.12,2.2-5.59.09-7.76-2.12-2.17-5.59-2.2-7.76-.09-.03.03-.06.06-.09.09l-6.17,6.18v-3.79c0-1.68-.6-3.31-1.68-4.59-1.45-1.73-2.34-3.22-2.55-4.26.59-.24.97-.81.97-1.44v-1.97c0-.86-.7-1.55-1.56-1.56H4.82c-.86,0-1.55.7-1.56,1.56v1.97c0,.63.39,1.2.97,1.44-.16.64-.43,1.25-.78,1.81-.52.86-1.12,1.68-1.77,2.45C.6,10.51,0,12.13,0,13.81v14.87c0,3.03,2.46,5.48,5.49,5.49.03,0,21.19,0,24.28,0,3.03,0,5.48-2.45,5.49-5.48,0-2.72-1.99-5.03-4.68-5.43ZM17.29,23.2c.22-.58.56-1.1.99-1.54l4.3-4.3,5.84,5.84h-11.14ZM27.7,12.24c1.69-1.7,4.44-1.7,6.14,0s1.7,4.44,0,6.14l-4.3,4.3-6.14-6.14,4.3-4.3ZM4.41,1.56c0-.23.18-.41.41-.41h11.08c.23,0,.41.18.41.41v1.97c0,.23-.18.41-.41.41H4.82c-.23,0-.41-.18-.41-.41v-1.97ZM2.56,9.96c.7-.82,1.32-1.69,1.88-2.6.44-.7.76-1.47.94-2.28h9.95c.23,1.28,1.17,2.91,2.82,4.88.91,1.08,1.41,2.45,1.41,3.86v4.94l-2.09,2.09c-.66.66-1.14,1.47-1.4,2.37-.06,0-.12,0-.18,0v-6.62c0-1.36-1.11-2.47-2.47-2.47H1.15c-.05-1.52.45-3,1.42-4.17h0ZM11.06,27.7H1.15v-12.43h12.29c.73,0,1.32.6,1.32,1.33v6.87c-1.91.63-3.33,2.25-3.69,4.23ZM5.49,33.02c-2.33,0-4.24-1.85-4.33-4.18h9.83c.05,1.64.83,3.17,2.13,4.18h-7.63ZM12.14,28.28h0c.21-2.24,2.08-3.94,4.32-3.94h6.08v8.68h-6.08c-2.4,0-4.34-1.95-4.34-4.34,0-.13,0-.26.02-.4ZM29.77,33.02h-6.08v-8.68h6.08c2.4,0,4.34,1.94,4.34,4.34s-1.94,4.34-4.34,4.34Z"/></g></svg>