<?xml version="1.0" encoding="UTF-8"?><svg id="Calque_2" xmlns="http://www.w3.org/2000/svg" viewBox="0 0 28.98 39.21"><defs><style>.cls-1{fill:#245b63;}</style></defs><g id="Capa_1"><path class="cls-1" d="M20.7,35.07c0,2.29,1.85,4.14,4.14,4.14s4.14-1.85,4.14-4.14c0-2.05-1.5-3.79-3.53-4.1v-5.36c0-2.44-1.98-4.42-4.42-4.42-2.44,0-4.42,1.98-4.42,4.42h0v3.81c0,1.76-1.41,3.2-3.18,3.21-1.76,0-3.2-1.41-3.21-3.18,0-.01,0-.02,0-.03v-2.7c.74-.23,1.24-.92,1.24-1.7v-3.66c0-.26.18-.49.43-.54,3.07-.69,5.68-2.71,7.11-5.52l.04-.07c.36-.7.21-1.56-.36-2.1.31-.94.46-1.93.46-2.93v-4.41c0-2.54-2.06-4.6-4.6-4.6h-.96c-.34-.93-1.37-1.42-2.3-1.08-.93.34-1.42,1.37-1.08,2.3s1.37,1.42,2.3,1.08c.5-.18.9-.58,1.08-1.08h.96c1.87,0,3.38,1.51,3.38,3.38v4.41c0,.81-.12,1.61-.35,2.39-.75-.11-1.49.28-1.83.95l-.04.07c-1.69,3.36-5.79,4.71-9.15,3.02-1.3-.66-2.36-1.72-3.02-3.02l-.04-.07c-.35-.67-1.08-1.06-1.83-.95-.23-.77-.35-1.58-.35-2.39v-4.41c0-1.87,1.51-3.38,3.38-3.38h.96c.34.93,1.37,1.42,2.3,1.08s1.42-1.37,1.08-2.3c-.34-.93-1.37-1.42-2.3-1.08-.5.18-.9.58-1.08,1.08h-.96C2.15,1.19.09,3.25.09,5.79v4.41c0,.99.16,1.98.46,2.93-.57.54-.72,1.4-.36,2.1l.04.07c1.42,2.81,4.03,4.84,7.11,5.52.25.05.44.28.43.54v3.66c0,.78.5,1.46,1.24,1.7v2.7c-.01,2.44,1.96,4.43,4.4,4.44,2.44.01,4.43-1.96,4.44-4.4,0-.01,0-.02,0-.04v-3.8c0-1.76,1.43-3.19,3.19-3.19s3.19,1.43,3.19,3.19h0v5.36c-2.03.31-3.53,2.05-3.53,4.1h0ZM11.9,2.37c-.32,0-.57-.26-.57-.57,0-.32.26-.57.57-.57.32,0,.57.26.57.57,0,.32-.26.57-.57.57ZM7.35,1.23c.32,0,.57.26.57.57,0,.32-.26.57-.57.57-.32,0-.57-.26-.57-.57h0c0-.32.26-.57.57-.57ZM7.6,19.62c-2.72-.61-5.02-2.4-6.28-4.88l-.04-.07c-.14-.27-.03-.6.24-.74l.14-.07c.27-.14.6-.03.74.24l.04.07c2,3.96,6.84,5.56,10.8,3.56,1.53-.77,2.78-2.02,3.56-3.56l.04-.07c.14-.27.47-.38.74-.24l.14.07c.27.14.38.47.24.74l-.04.07c-1.26,2.48-3.56,4.28-6.28,4.88-.81.18-1.39.9-1.39,1.74v3.66c0,.31-.25.55-.55.55h-.16c-.31,0-.55-.25-.55-.55v-3.66c0-.83-.58-1.56-1.39-1.74h0ZM27.76,35.07c0,1.61-1.31,2.92-2.92,2.92s-2.92-1.31-2.92-2.92,1.31-2.92,2.92-2.92c1.61,0,2.92,1.31,2.92,2.92ZM22.88,35.07c0,1.08.88,1.96,1.96,1.96s1.96-.88,1.96-1.96-.88-1.96-1.96-1.96h0c-1.08,0-1.96.88-1.96,1.96ZM25.58,35.07c0,.41-.33.74-.74.74s-.74-.33-.74-.74.33-.74.74-.74h0c.41,0,.74.33.74.74Z"/></g></svg>