<?xml version="1.0" encoding="UTF-8"?><svg id="Calque_2" xmlns="http://www.w3.org/2000/svg" viewBox="0 0 32.15 28.38"><defs><style>.cls-1{fill:#245b63;}</style></defs><g id="Capa_1"><path class="cls-1" d="M5.47,7.54L0,28.38h32.15l-5.47-20.84h-7.78v-1.89h5.96c2.6,0,4.71-2.11,4.71-4.71v-.94H2.58v.94c0,2.6,2.11,4.71,4.71,4.71h5.96v1.89h-7.78ZM7.29,3.77c-1.23,0-2.28-.79-2.67-1.89h22.91c-.39,1.1-1.44,1.89-2.67,1.89H7.29ZM17.02,5.65v1.89h-1.89v-1.89s1.89,0,1.89,0ZM25.23,9.42l4.48,17.07H2.44L6.92,9.42h18.31Z"/><path class="cls-1" d="M16.08,11.31c-3.67,0-6.65,2.98-6.65,6.65s2.98,6.65,6.65,6.65,6.65-2.98,6.65-6.65-2.98-6.65-6.65-6.65ZM17.02,22.63v-4.67h-1.88v4.67c-2.18-.44-3.83-2.37-3.83-4.67,0-2.63,2.14-4.77,4.77-4.77s4.77,2.14,4.77,4.77c0,2.31-1.65,4.23-3.83,4.67Z"/></g></svg>