<?xml version="1.0" encoding="UTF-8"?><svg id="Calque_2" xmlns="http://www.w3.org/2000/svg" viewBox="0 0 29.56 29.56"><defs><style>.cls-1{fill:#245b63;}</style></defs><g id="Capa_1"><path class="cls-1" d="M1.15,8.2l2.4,1.31c.4.22.9.07,1.11-.33s.07-.9-.33-1.11l-2.41-1.31c-.4-.22-.9-.07-1.11.33-.22.4-.07.9.33,1.11Z"/><path class="cls-1" d="M8,5.13c.23.39.74.51,1.13.27s.51-.74.27-1.13l-1.35-2.22c-.23-.39-.74-.51-1.13-.27-.39.23-.51.74-.27,1.13l1.35,2.22Z"/><path class="cls-1" d="M14.78,4.17c.45,0,.82-.37.82-.82V.82c0-.45-.37-.82-.82-.82s-.82.37-.82.82v2.53c0,.45.37.82.82.82Z"/><path class="cls-1" d="M20.43,5.41c.39.24.89.11,1.13-.27l1.35-2.22c.23-.39.11-.89-.27-1.13-.39-.23-.89-.11-1.13.27l-1.35,2.22c-.23.39-.11.9.27,1.13Z"/><path class="cls-1" d="M24.89,9.19c.22.4.72.55,1.11.33l2.41-1.31c.4-.22.55-.72.33-1.11-.22-.4-.72-.55-1.11-.33l-2.41,1.31c-.4.22-.54.71-.33,1.11h0Z"/><path class="cls-1" d="M29.5,28.43l-1.46-3.69c-.12-.31-.42-.52-.76-.52h-1.71l-1.76-12.83c-.3-2.33-2.29-4.08-4.64-4.08h-8.78c-2.34,0-4.34,1.75-4.64,4.07l-1.76,12.83h-1.71c-.34,0-.64.2-.76.52L.06,28.43c-.22.54.19,1.12.76,1.12h27.92c.58,0,.98-.58.76-1.12h0ZM7.38,11.61c.19-1.51,1.49-2.65,3.01-2.65h8.78c1.52,0,2.82,1.14,3.01,2.65l1.73,12.61H5.65l1.73-12.61ZM2.03,27.92l.81-2.05h23.88l.81,2.05H2.03Z"/><path class="cls-1" d="M13.55,13.67l.4,5h1.64l.41-5v-1.72h-2.46v1.72Z"/><circle class="cls-1" cx="14.78" cy="20.83" r="1.22"/></g></svg>