<?xml version="1.0" encoding="UTF-8"?><svg id="Calque_2" xmlns="http://www.w3.org/2000/svg" viewBox="0 0 35.11 35.11"><defs><style>.cls-1{fill:#245b63;}</style></defs><g id="Capa_1"><path class="cls-1" d="M24.61,0h-14.1C4.71,0,0,4.71,0,10.5v14.1c0,5.79,4.71,10.5,10.5,10.5h14.1c5.79,0,10.5-4.71,10.5-10.5v-14.1c0-5.79-4.71-10.5-10.5-10.5ZM33.05,24.61c0,4.66-3.79,8.44-8.44,8.44h-14.11c-4.66,0-8.44-3.79-8.44-8.44v-14.1C2.06,5.84,5.84,2.06,10.5,2.06h14.1c4.66,0,8.44,3.79,8.44,8.44v14.1h0Z"/><path class="cls-1" d="M14.13,9.57h-2.82v-2.82c0-.57-.46-1.03-1.03-1.03s-1.03.46-1.03,1.03v2.82h-2.82c-.57,0-1.03.46-1.03,1.03s.46,1.03,1.03,1.03h2.82v2.82c0,.57.46,1.03,1.03,1.03s1.03-.46,1.03-1.03v-2.82h2.82c.57,0,1.03-.46,1.03-1.03,0-.57-.46-1.03-1.03-1.03Z"/><path class="cls-1" d="M28.42,9.57h-7.7c-.57,0-1.03.46-1.03,1.03s.46,1.03,1.03,1.03h7.7c.57,0,1.03-.46,1.03-1.03s-.46-1.03-1.03-1.03Z"/><path class="cls-1" d="M11.73,25.18l2-2c.4-.4.4-1.05,0-1.45s-1.05-.4-1.45,0l-2,2-2-2c-.4-.4-1.05-.4-1.45,0s-.4,1.05,0,1.45l2,2-2,2c-.4.4-.4,1.05,0,1.45.2.2.46.3.73.3s.53-.1.73-.3l2-2,2,2c.2.2.46.3.73.3s.53-.1.73-.3c.4-.4.4-1.05,0-1.45l-2-2Z"/><path class="cls-1" d="M28.42,22.09h-7.7c-.57,0-1.03.46-1.03,1.03s.46,1.03,1.03,1.03h7.7c.57,0,1.03-.46,1.03-1.03s-.46-1.03-1.03-1.03Z"/><path class="cls-1" d="M28.42,26.2h-7.7c-.57,0-1.03.46-1.03,1.03s.46,1.03,1.03,1.03h7.7c.57,0,1.03-.46,1.03-1.03s-.46-1.03-1.03-1.03Z"/></g></svg>