<?xml version="1.0" encoding="UTF-8"?><svg id="Calque_2" xmlns="http://www.w3.org/2000/svg" viewBox="0 0 29.48 29.48"><defs><style>.cls-1{fill:#245b63;}</style></defs><g id="Capa_1"><path class="cls-1" d="M25.48,21.5l-3.1-3.1c1.61-2.43,1.96-5.51.93-8.25l2.17-2.17c1.92.74,3.99-.68,3.99-2.74,0-1.42-1.02-2.61-2.36-2.88-.27-1.34-1.46-2.36-2.88-2.36-2.06,0-3.48,2.07-2.74,3.99l-1.72,1.72c-3.05-2.02-7.02-2.02-10.07,0l-1.72-1.72c.74-1.92-.68-3.99-2.74-3.99-1.42,0-2.61,1.02-2.88,2.36-1.34.27-2.36,1.46-2.36,2.88,0,2.06,2.07,3.48,3.99,2.74l2.17,2.17c-1.01,2.68-.71,5.77.93,8.25l-3.1,3.1C2.08,20.75,0,22.18,0,24.24,0,25.66,1.02,26.85,2.36,27.12c.27,1.34,1.46,2.36,2.88,2.36,2.06,0,3.48-2.07,2.74-3.99l1.52-1.52c1,1.87,2.97,3.15,5.24,3.15s4.24-1.28,5.24-3.15l1.52,1.52c-.74,1.92.68,3.99,2.74,3.99,1.42,0,2.61-1.02,2.88-2.36,1.34-.27,2.36-1.46,2.36-2.88,0-2.06-2.07-3.48-3.99-2.74ZM23.17,4.76c.3-.3.34-.77.09-1.12-.57-.79-.01-1.92.98-1.92.73,0,1.29.64,1.2,1.35-.07.55.4,1.03.96.96.71-.09,1.35.47,1.35,1.2,0,.99-1.13,1.55-1.92.98-.34-.25-.82-.21-1.12.09l-2.21,2.21c-.39-.62-.85-1.2-1.38-1.71l2.04-2.04ZM4.76,6.31c-.3-.3-.77-.34-1.12-.09-.79.57-1.92.01-1.92-.98,0-.73.64-1.29,1.35-1.2.56.07,1.03-.4.96-.96-.09-.71.47-1.35,1.2-1.35.99,0,1.55,1.13.98,1.92-.25.34-.21.82.09,1.12l2.04,2.04c-.52.51-.99,1.08-1.38,1.71l-2.21-2.21ZM6.31,24.71c-.3.3-.34.77-.09,1.12.57.79.01,1.92-.98,1.92-.73,0-1.29-.64-1.2-1.35.07-.55-.4-1.03-.96-.96-.71.09-1.35-.47-1.35-1.2,0-.99,1.13-1.55,1.92-.98.34.25.82.21,1.12-.09l3.42-3.42c.22.22.44.43.68.63-.08.58-.07,1.17.02,1.76l-2.58,2.58ZM14.74,25.39c-2.7,0-4.71-2.53-4.09-5.17.08-.34-.05-.69-.33-.89-1.89-1.4-3.01-3.57-3.01-5.97,0-4.09,3.33-7.43,7.43-7.43s7.43,3.33,7.43,7.43c0,2.41-1.12,4.57-3.01,5.97-.28.21-.41.56-.33.89.62,2.65-1.4,5.17-4.09,5.17ZM26.4,25.44c-.56-.07-1.03.4-.96.96.09.71-.47,1.35-1.2,1.35-.99,0-1.55-1.13-.98-1.92.25-.34.21-.82-.09-1.12l-2.58-2.58c.09-.58.1-1.17.02-1.76.24-.2.46-.41.68-.63l3.42,3.42c.3.3.77.34,1.12.09.79-.57,1.92-.01,1.92.98,0,.73-.64,1.29-1.35,1.2Z"/><path class="cls-1" d="M15.51,18.96c-.32-.63-1.23-.64-1.54,0l-.46.92c-.29.57.13,1.25.77,1.25h.92c.64,0,1.06-.68.77-1.25l-.46-.92Z"/><path class="cls-1" d="M11.51,15.6c-1.49,0-2.71-1.21-2.71-2.71s1.21-2.71,2.71-2.71,2.71,1.21,2.71,2.71-1.21,2.71-2.71,2.71ZM11.51,11.92c-.54,0-.98.44-.98.98s.44.98.98.98.98-.44.98-.98-.44-.98-.98-.98Z"/><path class="cls-1" d="M17.96,15.6c-1.49,0-2.71-1.21-2.71-2.71s1.21-2.71,2.71-2.71,2.71,1.21,2.71,2.71-1.21,2.71-2.71,2.71ZM17.96,11.92c-.54,0-.98.44-.98.98s.44.98.98.98.98-.44.98-.98-.44-.98-.98-.98Z"/></g></svg>