<?xml version="1.0" encoding="UTF-8"?><svg id="Calque_2" xmlns="http://www.w3.org/2000/svg" viewBox="0 0 33.9 41.52"><defs><style>.cls-1{fill:#245b63;}</style></defs><g id="Capa_1"><path class="cls-1" d="M21.13,15.83H1.96c-.77,0-1.45.44-1.78,1.14s-.21,1.5.3,2.09l2.04,2.36c.1.12.16.27.16.43v16.43c0,1.79,1.46,3.25,3.25,3.25h13.9c1.79,0,3.25-1.46,3.25-3.25v-20.49c0-1.08-.87-1.95-1.95-1.95h0ZM1.46,18.2c-.25-.29-.14-.61-.1-.7s.2-.38.59-.38h19.18c.36,0,.65.29.65.65v6.67H3.98v-2.6c0-.47-.17-.92-.48-1.28l-2.04-2.36h0ZM19.83,40.22H5.94c-1.08,0-1.95-.87-1.95-1.95v-12.52h17.8v12.52c0,1.08-.87,1.95-1.95,1.95ZM7.89,28.35c0,.36-.29.65-.65.65h-1.3c-.36,0-.65-.29-.65-.65s.29-.65.65-.65h1.3c.36,0,.65.29.65.65ZM7.89,31.6c0,.36-.29.65-.65.65h-1.3c-.36,0-.65-.29-.65-.65s.29-.65.65-.65h1.3c.36,0,.65.29.65.65ZM7.89,34.85c0,.36-.29.65-.65.65h-1.3c-.36,0-.65-.29-.65-.65s.29-.65.65-.65h1.3c.36,0,.65.29.65.65ZM5.29,21.84c0-.36.29-.65.65-.65h1.3c.36,0,.65.29.65.65s-.29.65-.65.65h-1.3c-.36,0-.65-.29-.65-.65ZM7.89,38.1c0,.36-.29.65-.65.65h-1.3c-.36,0-.65-.29-.65-.65s.29-.65.65-.65h1.3c.36,0,.65.29.65.65ZM32.83,13.79L21.91,2.87c.39-.74.28-1.68-.34-2.3-.76-.76-2-.76-2.76,0l-4.37,4.37c-.37.37-.57.86-.57,1.38s.2,1.01.57,1.38c.37.37.86.57,1.38.57.33,0,.64-.08.92-.23l10.92,10.92c.69.69,1.61,1.07,2.59,1.07s1.9-.38,2.59-1.07,1.07-1.61,1.07-2.59-.38-1.9-1.07-2.59h0ZM17.71,7.18l3.33-3.33,3.36,3.36h-6.67l-.03-.03h0ZM15.35,6.78c-.12-.12-.19-.29-.19-.46s.07-.34.19-.46l4.37-4.37c.13-.13.29-.19.46-.19s.33.06.46.19c.25.25.25.67,0,.92l-4.37,4.37c-.25.25-.67.25-.92,0ZM31.91,18.05c-.92.92-2.41.92-3.33,0l-9.54-9.54h6.67l6.2,6.2c.45.45.69,1.04.69,1.67s-.25,1.22-.69,1.67ZM13.51,14.53c1.31,0,2.37-1.06,2.37-2.37,0-1.17-.9-3.32-2.37-3.32s-2.37,2.15-2.37,3.32c0,1.31,1.06,2.37,2.37,2.37ZM13.51,10.14c.38,0,1.07,1.19,1.07,2.02,0,.59-.48,1.07-1.07,1.07s-1.07-.48-1.07-1.07c0-.83.69-2.02,1.07-2.02Z"/></g></svg>