<?xml version="1.0" encoding="UTF-8"?><svg id="Calque_2" xmlns="http://www.w3.org/2000/svg" viewBox="0 0 32.36 34.43"><defs><style>.cls-1{fill:#245b63;stroke:#245b63;stroke-miterlimit:10;stroke-width:.25px;}</style></defs><g id="Capa_1"><path class="cls-1" d="M8.94,34.3c-3.72,0-6.74-3.02-6.74-6.74V6.37H.12V.12h17.62v6.24h-2.07v21.19c0,3.72-3.02,6.74-6.74,6.74ZM3.26,27.56c0,3.13,2.54,5.67,5.67,5.67s5.67-2.54,5.67-5.67v-2.57H3.26v2.57ZM3.26,23.92h11.35v-11.35H3.26v11.35ZM3.26,11.5h11.35v-5.14H3.26v5.14ZM13.61,5.3h3.07V1.19h-3.07v4.1ZM9.47,5.3h3.07V1.19h-3.07v4.1ZM5.33,5.3h3.07V1.19h-3.07v4.1ZM1.19,5.3h3.07V1.19H1.19v4.1Z"/><polygon class="cls-1" points="29.09 15.68 29.09 13.61 27.02 13.61 27.02 12.54 29.09 12.54 29.09 10.47 30.16 10.47 30.16 12.54 32.23 12.54 32.23 13.61 30.16 13.61 30.16 15.68 29.09 15.68"/><rect class="cls-1" x="18.75" y="12.54" width="5.21" height="1.07"/><path class="cls-1" d="M25.49,34.3c-3.15,0-5.71-2.56-5.71-5.71,0-1.36,1-4.03,5.71-9.05,1.35,1.42,5.7,6.23,5.7,9.05,0,3.15-2.56,5.71-5.71,5.71ZM25.12,21.52c-.71.8-4.26,4.93-4.26,7.08,0,2.56,2.08,4.64,4.64,4.64s4.64-2.08,4.64-4.64c0-2.15-3.55-6.27-4.26-7.08l-.37-.42-.37.42Z"/><rect class="cls-1" x="6.33" y="15.64" width="5.21" height="1.07"/><rect class="cls-1" x="6.33" y="19.78" width="5.21" height="1.07"/></g></svg>