<?xml version="1.0" encoding="UTF-8"?><svg id="Calque_2" xmlns="http://www.w3.org/2000/svg" viewBox="0 0 31.72 31.72"><defs><style>.cls-1{fill:#245b63;}</style></defs><g id="Capa_1"><path class="cls-1" d="M29.44,2.29c-3.05-3.05-8.01-3.05-11.06,0L2.29,18.38c-3.05,3.05-3.05,8.01,0,11.06,1.52,1.52,3.53,2.29,5.53,2.29s4-.76,5.53-2.29L29.44,13.34c3.05-3.05,3.05-8.01,0-11.06ZM12.03,28.12c-2.32,2.32-6.1,2.33-8.43,0-2.32-2.32-2.32-6.1,0-8.43l7.39-7.39,8.43,8.43-7.39,7.39ZM28.12,12.03l-7.39,7.39-8.43-8.43,7.39-7.39c1.16-1.16,2.69-1.74,4.21-1.74s3.05.58,4.21,1.74c2.32,2.32,2.32,6.1,0,8.43Z"/></g></svg>