<?xml version="1.0" encoding="UTF-8"?><svg id="Calque_2" xmlns="http://www.w3.org/2000/svg" viewBox="0 0 30.22 30.22"><defs><style>.cls-1{fill:#245b63;}</style></defs><g id="Capa_1"><path class="cls-1" d="M29.87,5.51L24.71.35c-.46-.46-1.21-.46-1.67,0L.35,23.04c-.22.22-.35.52-.35.83s.12.61.35.83l5.16,5.16c.23.23.53.35.83.35s.6-.12.83-.35L23.57,13.48c.23-.23.23-.6,0-.83-.23-.23-.6-.23-.83,0L6.34,29.04l-5.16-5.16,1.13-1.13,1.39,1.39c.12.12.27.17.42.17s.3-.06.42-.17c.23-.23.23-.6,0-.83l-1.39-1.39,1.13-1.13.55.55c.12.12.27.17.42.17s.3-.06.42-.17c.23-.23.23-.6,0-.83l-.55-.55,1.13-1.13,1.39,1.39c.12.12.27.17.42.17s.3-.06.42-.17c.23-.23.23-.6,0-.83l-1.39-1.39,1.13-1.13.55.55c.12.12.27.17.42.17s.3-.06.42-.17c.23-.23.23-.6,0-.83l-.55-.55,1.13-1.13,1.39,1.39c.12.12.27.17.42.17s.3-.06.42-.17c.23-.23.23-.6,0-.83l-1.39-1.39,1.13-1.13.55.55c.12.12.27.17.42.17s.3-.06.42-.17c.23-.23.23-.6,0-.83l-.55-.55,1.13-1.13,1.39,1.39c.12.12.27.17.42.17s.3-.06.42-.17c.23-.23.23-.6,0-.83l-1.39-1.39,1.13-1.13.55.55c.12.12.27.17.42.17s.3-.06.42-.17c.23-.23.23-.6,0-.83l-.55-.55,1.13-1.13,1.39,1.39c.12.12.27.17.42.17s.3-.06.42-.17c.23-.23.23-.6,0-.83l-1.39-1.39,1.13-1.13.55.55c.12.12.27.17.42.17s.3-.06.42-.17c.23-.23.23-.6,0-.83l-.55-.55,1.13-1.13,1.39,1.39c.12.12.27.17.42.17s.3-.06.42-.17c.23-.23.23-.6,0-.83l-1.39-1.39,1.13-1.13,5.16,5.16-2.55,2.55c-.23.23-.23.6,0,.83s.6.23.83,0l2.55-2.55c.22-.22.35-.52.35-.83s-.12-.61-.35-.83h0Z"/><circle class="cls-1" cx="25.03" cy="11.19" r=".59"/></g></svg>