<?xml version="1.0" encoding="UTF-8"?><svg id="Calque_2" xmlns="http://www.w3.org/2000/svg" viewBox="0 0 33.09 42.49"><defs><style>.cls-1{fill:#245b63;}</style></defs><g id="Capa_1"><path class="cls-1" d="M11.66,8.73h2.83c.37,0,.66-.3.66-.66s-.3-.66-.66-.66h-2.83c-.37,0-.66.3-.66.66s.3.66.66.66Z"/><path class="cls-1" d="M3.73,14.28c.37,0,.66-.3.66-.66v-5.55c0-.37-.3-.66-.66-.66s-.66.3-.66.66v5.55c0,.37.3.66.66.66Z"/><path class="cls-1" d="M11.66,11.51h2.83c.37,0,.66-.3.66-.66s-.3-.66-.66-.66h-2.83c-.37,0-.66.3-.66.66s.3.66.66.66Z"/><path class="cls-1" d="M11.66,14.28h2.83c.37,0,.66-.3.66-.66s-.3-.66-.66-.66h-2.83c-.37,0-.66.3-.66.66s.3.66.66.66Z"/><path class="cls-1" d="M11.66,17.06h2.83c.37,0,.66-.3.66-.66s-.3-.66-.66-.66h-2.83c-.37,0-.66.3-.66.66s.3.66.66.66Z"/><path class="cls-1" d="M32.87,31.6c-.22-.4-.57-.69-.98-.85v-5.75c0-2.72-2.77-4.93-6.17-4.93s-6.17,2.21-6.17,4.93v12.56c0,1.99-2.17,3.6-4.84,3.6s-4.84-1.62-4.84-3.6v-5.72c1.01-.29,1.76-1.21,1.76-2.32v-.24h4.62c1.19,0,2.15-.97,2.15-2.15V6.78c0-1.19-.97-2.15-2.15-2.15h-6.57v-.41c.87-.28,1.5-1.09,1.5-2.05,0-1.19-.97-2.16-2.16-2.16-.62,0-1.21.27-1.62.73-.24.27-.22.69.06.94.27.24.69.22.94-.06.16-.18.39-.28.63-.28.46,0,.84.37.84.84s-.37.84-.84.84c-.37,0-.66.3-.66.66v.96H2.15c-1.19,0-2.15.97-2.15,2.15v20.35c0,1.19.97,2.15,2.15,2.15h4.62v.24c0,1.1.75,2.03,1.76,2.32v5.72c0,2.72,2.77,4.93,6.17,4.93s6.17-2.21,6.17-4.93v-12.56c0-1.99,2.17-3.6,4.84-3.6s4.84,1.62,4.84,3.6v5.75c-.41.16-.77.44-.98.85-.33.61-.29,1.34.08,1.92l1.01,1.53c.12.19.33.3.55.3s.43-.11.55-.3l1.01-1.53c.38-.58.41-1.31.08-1.92h0ZM2.15,5.95h14.09c.46,0,.83.37.83.83v11.86c-.86.63-3.99,2.52-7.46-.2-2.23-1.75-4.3-2.44-6.16-2.05-.89.19-1.59.6-2.12,1.03V6.78c0-.46.37-.83.83-.83h0ZM1.33,27.13v-7.75c.23-.35,1-1.39,2.39-1.68,1.46-.31,3.16.3,5.07,1.79,1.62,1.27,3.2,1.7,4.59,1.7,1.54,0,2.83-.52,3.69-.99v6.94c0,.46-.37.83-.83.83H2.15c-.46,0-.83-.37-.83-.83ZM8.1,29.52v-.24h2.19v.24c0,.6-.49,1.09-1.09,1.09s-1.09-.49-1.09-1.09ZM31.67,32.79l-.45.69-.45-.69c-.16-.24-.07-.47-.03-.56.05-.09.19-.29.48-.29s.43.2.48.29c.05.09.14.31-.03.56h0Z"/></g></svg>