<?xml version="1.0" encoding="UTF-8"?><svg id="Calque_2" xmlns="http://www.w3.org/2000/svg" viewBox="0 0 34.9 36.85"><defs><style>.cls-1{fill:#245b63;}</style></defs><g id="Capa_1"><path class="cls-1" d="M33.77,12.25l1.13-1.13-7.13-7.13-1.13,1.13,3,3-2.19,2.19-3.94-3.89-3.88,3.88,1.03,1.03-10.29,10.29c-1.01,1.01-1.25,2.5-.72,3.74l-2.92,2.92,1.37,1.37-6.08,6.08,1.13,1.13,6.08-6.08,1.37,1.37,2.92-2.92c.42.18.87.27,1.33.27.91,0,1.76-.35,2.41-1l10.29-10.29,1.03,1.03,3.93-3.93-3.94-3.89,2.18-2.18,3,3ZM9.01,28.26l1.61-1.61,1.61,1.61-1.61,1.61-1.61-1.61ZM16.14,27.37c-.7.7-1.84.7-2.54,0l-2.09-2.09c-.7-.7-.7-1.84,0-2.54l1.63-1.63,1.81,1.81,1.13-1.13-1.81-1.81,1.16-1.16h9.26l-8.55,8.55ZM26.3,17.21h-9.26l4.76-4.76,4.63,4.63-.13.13ZM28.6,16.98l-6.69-6.69,1.61-1.61,6.73,6.65-1.65,1.65Z"/><path class="cls-1" d="M16.14,13.4c-.31-.23-.75-.17-.99.14-.13.17-.26.34-.41.5-.26.29-.23.74.06.99.13.12.3.18.47.18.19,0,.39-.08.53-.24.17-.19.33-.39.48-.59.23-.31.17-.75-.14-.98Z"/><path class="cls-1" d="M17.31,10.1c-.38-.08-.75.16-.84.54-.05.21-.1.42-.16.62-.11.37.09.77.46.88.07.02.14.03.21.03.3,0,.58-.19.67-.5.07-.24.14-.49.19-.74.08-.38-.16-.75-.54-.84Z"/><path class="cls-1" d="M12.75,15.65c-.19.1-.38.2-.58.29-.35.16-.51.58-.35.93.12.26.37.41.64.41.1,0,.2-.02.29-.06.23-.1.46-.22.68-.34.34-.19.46-.62.27-.96-.19-.34-.62-.46-.96-.27Z"/><path class="cls-1" d="M8.31,3.38v5.34l-2.58,2.58c-.27.27-.27.72,0,1,.14.14.32.21.5.21s.36-.07.5-.21l2.79-2.79c.13-.13.21-.31.21-.5V3.38c0-.39-.32-.7-.7-.7s-.7.32-.7.7Z"/><path class="cls-1" d="M17.32,1.51c-.39,0-.7.32-.7.7v1.95C14.98,1.6,12.11,0,9.01,0c-2.41,0-4.67.94-6.37,2.64C.94,4.34,0,6.6,0,9.01s.94,4.67,2.64,6.37c1.7,1.7,3.96,2.64,6.37,2.64,0,0,.01,0,.02,0,0,0,.01,0,.02,0,.25,0,.51-.01.76-.03.39-.03.68-.37.64-.76-.03-.39-.37-.68-.76-.64-.21.02-.43.03-.64.03,0,0-.01,0-.02,0,0,0-.01,0-.02,0-4.19,0-7.6-3.41-7.6-7.6S4.82,1.41,9.01,1.41c2.7,0,5.19,1.44,6.54,3.73h-1.94c-.39,0-.7.32-.7.7s.32.7.7.7h2.15c.43,0,.83-.12,1.17-.33.02-.01.04-.03.06-.04.61-.4,1.02-1.1,1.02-1.88v-2.08c0-.39-.32-.7-.7-.7Z"/></g></svg>