<svg width="32" height="36" viewBox="0 0 32 36" fill="none" xmlns="http://www.w3.org/2000/svg">
<mask id="mask0_4_635" style="mask-type:luminance" maskUnits="userSpaceOnUse" x="0" y="0" width="32" height="36">
<path d="M31.4113 0H0V35.24H31.4113V0Z" fill="white"/>
</mask>
<g mask="url(#mask0_4_635)">
<path d="M23.1773 7.4H23.5636H23.5534L24.2955 10.58C24.6818 12.19 23.8584 13.85 22.3234 14.54L16.895 17.01C16.1326 17.35 15.2584 17.35 14.5061 17.01L9.07776 14.54C7.55293 13.85 6.72953 12.19 7.10565 10.58L7.84773 7.4H8.23402M23.1773 7.4C21.4085 7.4 19.9752 5.99 19.9752 4.25V2.15M23.1773 7.4H25.6678V4.95C25.6678 2.63 23.7567 0.75 21.3983 0.75C20.6156 0.75 19.9752 1.38 19.9752 2.15M19.9752 2.15C19.9752 2.15 19.9752 2.12 19.9752 2.1C18.7451 1.38 17.2406 0.75 15.7057 0.75C14.1707 0.75 12.6662 1.37 11.4361 2.1C11.4361 2.12 11.4361 2.13 11.4361 2.15M11.4361 2.15V4.25C11.4361 5.99 10.0028 7.4 8.23402 7.4M11.4361 2.15C11.4361 1.38 10.7957 0.75 10.013 0.75C7.65459 0.75 5.74348 2.63 5.74348 4.95V7.4H8.23402M7.38012 22.86C6.77019 24.03 5.68249 24.88 4.39147 25.2C2.25672 25.73 0.76239 27.61 0.76239 29.78C0.76239 32.11 2.47019 34.03 4.72693 34.42M26.6844 34.41C28.9309 34.02 30.6489 32.09 30.6489 29.77C30.6489 27.61 29.1546 25.72 27.0198 25.19C25.7288 24.87 24.6411 24.02 24.0312 22.85M24.2447 30.36V25.67C24.2447 21.92 23.096 18.26 20.9612 15.16M10.4501 15.16C8.32551 18.26 7.16665 21.92 7.16665 25.67V30.36M14.2825 12.76H17.1288M15.7057 17.27V12.76M10.7246 34.49H5.03189C4.63544 34.49 4.32031 34.18 4.32031 33.79C4.32031 31.86 5.91629 30.29 7.87823 30.29C9.84017 30.29 11.4361 31.86 11.4361 33.79M10.7246 34.49C11.121 34.49 11.4361 34.18 11.4361 33.79M10.7246 34.49H20.6867M11.4361 33.79V23.99M19.9752 33.79C19.9752 31.86 21.5711 30.29 23.5331 30.29C25.495 30.29 27.091 31.86 27.091 33.79C27.091 34.18 26.7759 34.49 26.3794 34.49H20.6867M19.9752 33.79C19.9752 34.18 20.2903 34.49 20.6867 34.49M19.9752 33.79V23.99" stroke="#244B54" stroke-width="1.5" stroke-linecap="round" stroke-linejoin="round"/>
</g>
</svg>
