<?xml version="1.0" encoding="UTF-8"?><svg id="Calque_2" xmlns="http://www.w3.org/2000/svg" viewBox="0 0 33.49 33.5"><defs><style>.cls-1{fill:#245b63;}</style></defs><g id="Capa_1"><path class="cls-1" d="M31.93,23.26V4.61c0-1.1-.9-2-2-2h-4.74v-.65c0-1.08-.88-1.96-1.96-1.96s-1.96.88-1.96,1.96v.65h-10.6v-.65c0-1.08-.88-1.96-1.96-1.96s-1.96.88-1.96,1.96v.65H2c-1.1,0-2,.9-2,2v24.27c0,1.1.9,2,2,2h8.92c.36,0,.65-.29.65-.65s-.29-.65-.65-.65H2c-.38,0-.69-.31-.69-.69V4.61c0-.38.31-.69.69-.69h4.74v.65c0,1.08.88,1.96,1.96,1.96s1.96-.88,1.96-1.96v-.65h10.6v.65c0,1.08.88,1.96,1.96,1.96s1.96-.88,1.96-1.96v-.65h4.74c.38,0,.69.31.69.69v3.24H5.89c-.36,0-.65.29-.65.65s.29.65.65.65h24.73v12.99c-.56-.35-1.17-.62-1.83-.77v-9.73c0-.36-.29-.65-.65-.65H3.79c-.36,0-.65.29-.65.65v15.44c0,.36.29.65.65.65h17.42c.04.64.18,1.26.4,1.83h-5.47c-.36,0-.65.29-.65.65s.29.65.65.65h6.17c1.11,1.58,2.95,2.62,5.03,2.62,3.39,0,6.15-2.76,6.15-6.15,0-1.57-.6-3-1.57-4.09ZM9.35,4.58c0,.36-.29.65-.65.65s-.65-.29-.65-.65V1.96c0-.36.29-.65.65-.65s.65.29.65.65v2.62ZM23.88,4.58c0,.36-.29.65-.65.65s-.65-.29-.65-.65V1.96c0-.36.29-.65.65-.65s.65.29.65.65v2.62ZM27.35,21.2c-.29,0-.57.03-.85.07,0,0,0,0,0,0h-2.58v-3.79h3.56v3.74s-.09,0-.13,0ZM21.27,26.43h-2.22v-3.86h3.56v.86c-.7.84-1.17,1.87-1.34,3ZM4.45,17.47h3.56v3.79h-3.56v-3.79ZM9.32,17.47h3.56v3.79h-3.56v-3.79ZM19.05,17.47h3.56v3.79h-3.56v-3.79ZM17.74,21.26h-3.56v-3.79h3.56v3.79ZM19.05,16.16v-3.86h3.56v3.86h-3.56ZM17.74,16.16h-3.56v-3.86h3.56v3.86ZM12.87,16.16h-3.56v-3.86h3.56v3.86ZM12.87,22.57v3.86h-3.56v-3.86h3.56ZM14.18,22.57h3.56v3.86h-3.56v-3.86ZM27.48,16.16h-3.56v-3.86h3.56v3.86ZM8.01,12.3v3.86h-3.56v-3.86h3.56ZM4.45,22.57h3.56v3.86h-3.56v-3.86ZM27.35,32.19c-2.67,0-4.84-2.17-4.84-4.84s2.17-4.84,4.84-4.84,4.84,2.17,4.84,4.84-2.17,4.84-4.84,4.84Z"/><path class="cls-1" d="M29.24,25.76l-2.02,2.02-.9-.9c-.26-.25-.67-.25-.93,0-.25.26-.25.67,0,.93l1.36,1.36c.13.13.3.19.46.19s.33-.06.46-.19l2.49-2.49c.25-.26.25-.67,0-.93-.26-.25-.67-.26-.93,0Z"/><path class="cls-1" d="M13.78,29.62c-.24-.1-.53-.04-.71.14-.06.06-.11.13-.14.21-.04.08-.05.16-.05.25s0,.17.05.25c.03.08.08.15.14.21.12.13.29.2.46.2.18,0,.34-.07.46-.2.06-.06.11-.13.15-.21.03-.08.05-.16.05-.25,0-.17-.07-.34-.19-.46-.06-.06-.14-.11-.22-.14Z"/><path class="cls-1" d="M3.74,8.96c.06-.06.11-.13.14-.21.03-.08.05-.16.05-.25,0-.08-.02-.17-.05-.25-.03-.08-.08-.15-.14-.21-.19-.18-.48-.24-.72-.14-.08.03-.15.08-.21.14-.06.06-.11.13-.14.21-.03.08-.05.17-.05.25,0,.09.02.17.05.25.03.08.08.15.14.21.13.13.29.2.47.2.17,0,.33-.07.46-.2Z"/></g></svg>