<?xml version="1.0" encoding="UTF-8"?><svg id="Calque_2" xmlns="http://www.w3.org/2000/svg" viewBox="0 0 38.77 38.71"><defs><style>.cls-1{fill:#245b63;}</style></defs><g id="Capa_1"><path class="cls-1" d="M38.77,14.28c0-.19-.07-.36-.21-.5L24.98.21c-.27-.27-.72-.27-.99,0l-4.53,4.53s0,0,0,0,0,0,0,0l-4.53,4.53s0,0,0,0,0,0,0,0l-2.84,2.84-.1-.07c-.28-.19-.65-.15-.89.09L.21,23.02c-.13.13-.21.31-.21.5s.07.36.21.5l14.5,14.5c.14.14.32.21.5.21s.36-.07.5-.21l14.24-14.24c.25-.25.26-.64.05-.92l8.57-8.57c.13-.13.21-.31.21-.5ZM25.47,18.81l3.54-3.54,3.54,3.54-3.54,3.54-3.54-3.54ZM24.48,17.82l-3.54-3.54,3.54-3.54,3.54,3.54-3.54,3.54ZM21.74,17.06c-.07,0-.14,0-.22.01-.96.18-1.96-.02-2.83-.55l1.26-1.26,1.79,1.79ZM19.95,6.22l3.54,3.54-3.54,3.54-3.54-3.54,3.54-3.54ZM25.47,9.76l3.54-3.54,3.54,3.54-3.54,3.54-3.54-3.54ZM24.48,1.69l3.54,3.54-3.54,3.54-3.54-3.54,3.54-3.54ZM15.43,10.75l3.54,3.54-1.46,1.46-4.23-2.85,2.15-2.15ZM15.2,37.02L1.69,23.51l10-10,6.13,4.13c1.2.78,2.61,1.07,3.97.81.71-.13,1.44.09,1.94.6l.26.26,4.46,4.46-13.25,13.25ZM33.54,17.82l-3.54-3.54,3.54-3.54,3.54,3.54-3.54,3.54Z"/></g></svg>