<?xml version="1.0" encoding="UTF-8"?><svg id="Calque_2" xmlns="http://www.w3.org/2000/svg" viewBox="0 0 35.52 30.55"><defs><style>.cls-1{fill:#245b63;}</style></defs><g id="Capa_1"><path class="cls-1" d="M24.07,6.08c-2.51,0-4.83.82-6.71,2.2v-3.22c1.06-.32,1.84-1.3,1.84-2.47,0-1.43-1.16-2.59-2.59-2.59h-8.39c-1.43,0-2.59,1.16-2.59,2.59,0,1.17.78,2.14,1.84,2.47v8.17L.56,24.71c-.73,1.2-.75,2.66-.06,3.88.69,1.23,1.95,1.96,3.36,1.96,17.14,0,6.12,0,27.81,0,.42,0,.76-.34.76-.76v-4.45c1.99-2.13,3.09-4.89,3.09-7.81,0-6.31-5.14-11.45-11.45-11.45h0ZM7.15,2.59c0-.59.48-1.07,1.07-1.07h8.39c.59,0,1.07.48,1.07,1.07s-.48,1.07-1.07,1.07h-8.39c-.59,0-1.07-.48-1.07-1.07ZM8.88,13.84c.07-.12.11-.25.11-.39V5.19h6.85v4.41c-1.98,2.06-3.21,4.85-3.21,7.93,0,.43.03.86.08,1.29-.36.14-.71.3-1.05.49-1.32.77-2.86.98-4.33.6l-1.81-.47,3.37-5.6ZM1.83,27.84c-.42-.74-.4-1.62.04-2.35l2.83-4.7,2.25.59c.61.16,1.23.24,1.84.24,1.27,0,2.52-.34,3.64-.99.18-.1.37-.2.56-.28.47,1.85,1.39,3.57,2.73,5v3.68H3.86c-.86,0-1.62-.44-2.03-1.19h0ZM31.13,24.5c-.14.14-.22.33-.22.53v3.99h-1.34v-1.69c0-.42-.34-.76-.76-.76s-.76.34-.76.76v1.69h-1.71v-1.69c0-.42-.34-.76-.76-.76s-.76.34-.76.76v1.69h-1.71v-1.69c0-.42-.34-.76-.76-.76s-.76.34-.76.76v1.6c-.19.05-.4.09-.61.09h-1.11v-1.69c0-.42-.34-.76-.76-.76s-.76.34-.76.76v1.69h-1.12v-3.99c0-.2-.08-.39-.22-.53-1.85-1.87-2.87-4.35-2.87-6.97,0-5.47,4.45-9.93,9.93-9.93s9.93,4.45,9.93,9.93c0,2.63-1.02,5.1-2.87,6.97h0Z"/><path class="cls-1" d="M23.43,16.45c0-2.37-1.74-4.29-3.89-4.29s-3.89,1.92-3.89,4.29,1.74,4.29,3.89,4.29,3.89-1.92,3.89-4.29ZM19.55,19.22c-1.3,0-2.37-1.24-2.37-2.77s1.06-2.77,2.37-2.77,2.37,1.24,2.37,2.77-1.06,2.77-2.37,2.77Z"/><path class="cls-1" d="M28.6,12.16c-2.14,0-3.89,1.92-3.89,4.29s1.74,4.29,3.89,4.29,3.89-1.92,3.89-4.29-1.74-4.29-3.89-4.29ZM28.6,19.22c-1.3,0-2.37-1.24-2.37-2.77s1.06-2.77,2.37-2.77,2.37,1.24,2.37,2.77-1.06,2.77-2.37,2.77Z"/><path class="cls-1" d="M24.07,19.74c-1.27,0-2.11,1.66-2.11,2.75,0,1.16.95,2.11,2.11,2.11s2.11-.95,2.11-2.11c0-1.1-.84-2.75-2.11-2.75ZM24.07,23.08c-.32,0-.59-.26-.59-.59,0-.49.4-1.17.57-1.24.21.06.61.75.61,1.24,0,.32-.26.59-.59.59h0Z"/></g></svg>